<mxfile host="app.diagrams.net" modified="2023-12-16T16:42:12.887Z" agent="Mozilla/5.0 (Macintosh; Intel Mac OS X 10_15_7) AppleWebKit/605.1.15 (KHTML, like Gecko) Version/17.2 Safari/605.1.15" etag="Y10pqOFxjmgGzyzN9IcJ" version="22.1.11" type="github">
  <diagram name="Page-1" id="p3tlnsZYvzdKYyzsj7cI">
    <mxGraphModel dx="1193" dy="1978" grid="1" gridSize="10" guides="1" tooltips="1" connect="1" arrows="1" fold="1" page="1" pageScale="1" pageWidth="827" pageHeight="1169" math="0" shadow="0">
      <root>
        <mxCell id="0" />
        <mxCell id="1" parent="0" />
        <mxCell id="XECuIceJPaJ95dESV5uY-5" value="" style="edgeStyle=orthogonalEdgeStyle;rounded=0;orthogonalLoop=1;jettySize=auto;html=1;" edge="1" parent="1" source="XECuIceJPaJ95dESV5uY-1" target="XECuIceJPaJ95dESV5uY-4">
          <mxGeometry relative="1" as="geometry" />
        </mxCell>
        <mxCell id="XECuIceJPaJ95dESV5uY-1" value="" style="whiteSpace=wrap;html=1;aspect=fixed;" vertex="1" parent="1">
          <mxGeometry x="40" y="-10" width="210" height="210" as="geometry" />
        </mxCell>
        <mxCell id="XECuIceJPaJ95dESV5uY-4" value="" style="whiteSpace=wrap;html=1;aspect=fixed;" vertex="1" parent="1">
          <mxGeometry x="80" y="310" width="210" height="210" as="geometry" />
        </mxCell>
        <mxCell id="XECuIceJPaJ95dESV5uY-6" value="" style="line;strokeWidth=2;html=1;" vertex="1" parent="1">
          <mxGeometry x="80" y="40" width="210" height="10" as="geometry" />
        </mxCell>
        <mxCell id="XECuIceJPaJ95dESV5uY-7" value="«interface»&lt;br&gt;&lt;b&gt;Subject&lt;/b&gt;" style="html=1;whiteSpace=wrap;strokeWidth=1;labelPosition=center;verticalLabelPosition=top;align=center;verticalAlign=bottom;spacingLeft=0;spacingBottom=-31;" vertex="1" parent="1">
          <mxGeometry x="50" y="-1130" width="180" height="170" as="geometry" />
        </mxCell>
        <mxCell id="XECuIceJPaJ95dESV5uY-19" value="" style="line;strokeWidth=1;fillColor=none;align=left;verticalAlign=middle;spacingTop=-1;spacingLeft=3;spacingRight=3;rotatable=0;labelPosition=right;points=[];portConstraint=eastwest;strokeColor=inherit;" vertex="1" parent="1">
          <mxGeometry x="50" y="-1090" width="180" height="8" as="geometry" />
        </mxCell>
        <mxCell id="XECuIceJPaJ95dESV5uY-20" value="+ registerObserver(): void" style="text;strokeColor=none;fillColor=none;align=left;verticalAlign=top;spacingLeft=4;spacingRight=4;overflow=hidden;rotatable=0;points=[[0,0.5],[1,0.5]];portConstraint=eastwest;whiteSpace=wrap;html=1;" vertex="1" parent="1">
          <mxGeometry x="55" y="-1070" width="165" height="26" as="geometry" />
        </mxCell>
        <mxCell id="XECuIceJPaJ95dESV5uY-21" value="+ removeObserver(): void" style="text;strokeColor=none;fillColor=none;align=left;verticalAlign=top;spacingLeft=4;spacingRight=4;overflow=hidden;rotatable=0;points=[[0,0.5],[1,0.5]];portConstraint=eastwest;whiteSpace=wrap;html=1;" vertex="1" parent="1">
          <mxGeometry x="55" y="-1050" width="165" height="26" as="geometry" />
        </mxCell>
        <mxCell id="XECuIceJPaJ95dESV5uY-22" value="+ notifyObservers(): void" style="text;strokeColor=none;fillColor=none;align=left;verticalAlign=top;spacingLeft=4;spacingRight=4;overflow=hidden;rotatable=0;points=[[0,0.5],[1,0.5]];portConstraint=eastwest;whiteSpace=wrap;html=1;" vertex="1" parent="1">
          <mxGeometry x="55" y="-1030" width="165" height="26" as="geometry" />
        </mxCell>
        <mxCell id="XECuIceJPaJ95dESV5uY-42" value="&lt;p style=&quot;margin:0px;margin-top:4px;text-align:center;&quot;&gt;&lt;b&gt;WeatherData&lt;/b&gt;&lt;/p&gt;&lt;hr size=&quot;1&quot;&gt;&lt;p style=&quot;margin:0px;margin-left:4px;&quot;&gt;+ observers: List&lt;/p&gt;&lt;hr size=&quot;1&quot;&gt;&lt;p style=&quot;margin:0px;margin-left:4px;&quot;&gt;+ registerObserver(): void&lt;/p&gt;&amp;nbsp;+ removeObserver(): void&lt;p style=&quot;margin:0px;margin-left:4px;&quot;&gt;+ notifyObservers(): void&lt;br&gt;&lt;/p&gt;" style="verticalAlign=top;align=left;overflow=fill;fontSize=12;fontFamily=Helvetica;html=1;whiteSpace=wrap;" vertex="1" parent="1">
          <mxGeometry x="50" y="-850" width="180" height="170" as="geometry" />
        </mxCell>
        <mxCell id="XECuIceJPaJ95dESV5uY-45" value="" style="endArrow=block;dashed=1;endFill=0;endSize=12;html=1;rounded=0;exitX=0.5;exitY=0;exitDx=0;exitDy=0;entryX=0.5;entryY=1;entryDx=0;entryDy=0;" edge="1" parent="1" source="XECuIceJPaJ95dESV5uY-42" target="XECuIceJPaJ95dESV5uY-7">
          <mxGeometry width="160" relative="1" as="geometry">
            <mxPoint x="140" y="-860" as="sourcePoint" />
            <mxPoint x="253" y="-950" as="targetPoint" />
            <Array as="points" />
          </mxGeometry>
        </mxCell>
        <mxCell id="XECuIceJPaJ95dESV5uY-47" value="&lt;p style=&quot;margin:0px;margin-top:4px;text-align:center;&quot;&gt;&lt;i&gt;&amp;lt;&amp;lt;Interface&amp;gt;&amp;gt;&lt;/i&gt;&lt;br&gt;&lt;b&gt;Observer&lt;/b&gt;&lt;/p&gt;&lt;hr size=&quot;1&quot;&gt;&lt;p style=&quot;margin:0px;margin-left:4px;&quot;&gt;+ update(string, string, string):void&lt;/p&gt;" style="verticalAlign=top;align=left;overflow=fill;fontSize=12;fontFamily=Helvetica;html=1;whiteSpace=wrap;" vertex="1" parent="1">
          <mxGeometry x="560" y="-1130" width="240" height="140" as="geometry" />
        </mxCell>
        <mxCell id="XECuIceJPaJ95dESV5uY-48" value="&lt;p style=&quot;margin:0px;margin-top:4px;text-align:center;&quot;&gt;CurrentConditionsDisplay&lt;/p&gt;&lt;hr size=&quot;1&quot;&gt;&lt;p style=&quot;margin:0px;margin-left:4px;&quot;&gt;- weatherData: Subject&lt;/p&gt;&lt;hr size=&quot;1&quot;&gt;&lt;p style=&quot;margin:0px;margin-left:4px;&quot;&gt;+ update(string, string, string): void&lt;/p&gt;" style="verticalAlign=top;align=left;overflow=fill;fontSize=12;fontFamily=Helvetica;html=1;whiteSpace=wrap;" vertex="1" parent="1">
          <mxGeometry x="360" y="-866" width="200" height="90" as="geometry" />
        </mxCell>
        <mxCell id="XECuIceJPaJ95dESV5uY-49" value="&lt;p style=&quot;margin:0px;margin-top:4px;text-align:center;&quot;&gt;StatisticsDisplay&lt;/p&gt;&lt;hr size=&quot;1&quot;&gt;&lt;p style=&quot;margin:0px;margin-left:4px;&quot;&gt;- weatherData: Subject&lt;/p&gt;&lt;hr size=&quot;1&quot;&gt;&lt;p style=&quot;margin:0px;margin-left:4px;&quot;&gt;+ update(string, string, string): void&lt;/p&gt;" style="verticalAlign=top;align=left;overflow=fill;fontSize=12;fontFamily=Helvetica;html=1;whiteSpace=wrap;" vertex="1" parent="1">
          <mxGeometry x="588" y="-866" width="220" height="90" as="geometry" />
        </mxCell>
        <mxCell id="XECuIceJPaJ95dESV5uY-50" value="&lt;p style=&quot;margin:0px;margin-top:4px;text-align:center;&quot;&gt;ForecastDisplay&lt;/p&gt;&lt;hr size=&quot;1&quot;&gt;&lt;p style=&quot;margin:0px;margin-left:4px;&quot;&gt;- weatherData: Subject&lt;/p&gt;&lt;hr size=&quot;1&quot;&gt;&lt;p style=&quot;margin:0px;margin-left:4px;&quot;&gt;+ update(string, string, string): void&lt;/p&gt;" style="verticalAlign=top;align=left;overflow=fill;fontSize=12;fontFamily=Helvetica;html=1;whiteSpace=wrap;" vertex="1" parent="1">
          <mxGeometry x="830" y="-866" width="210" height="90" as="geometry" />
        </mxCell>
        <mxCell id="XECuIceJPaJ95dESV5uY-52" value="" style="endArrow=block;dashed=1;endFill=0;endSize=12;html=1;rounded=0;entryX=0.388;entryY=1.029;entryDx=0;entryDy=0;entryPerimeter=0;" edge="1" parent="1" target="XECuIceJPaJ95dESV5uY-47">
          <mxGeometry width="160" relative="1" as="geometry">
            <mxPoint x="450" y="-870" as="sourcePoint" />
            <mxPoint x="680" y="-880" as="targetPoint" />
          </mxGeometry>
        </mxCell>
        <mxCell id="XECuIceJPaJ95dESV5uY-54" value="" style="endArrow=block;dashed=1;endFill=0;endSize=12;html=1;rounded=0;exitX=0.5;exitY=0;exitDx=0;exitDy=0;entryX=0.575;entryY=1.021;entryDx=0;entryDy=0;entryPerimeter=0;" edge="1" parent="1" source="XECuIceJPaJ95dESV5uY-49" target="XECuIceJPaJ95dESV5uY-47">
          <mxGeometry width="160" relative="1" as="geometry">
            <mxPoint x="520" y="-880" as="sourcePoint" />
            <mxPoint x="680" y="-880" as="targetPoint" />
          </mxGeometry>
        </mxCell>
        <mxCell id="XECuIceJPaJ95dESV5uY-55" value="" style="endArrow=block;dashed=1;endFill=0;endSize=12;html=1;rounded=0;entryX=0.779;entryY=1.007;entryDx=0;entryDy=0;entryPerimeter=0;" edge="1" parent="1" target="XECuIceJPaJ95dESV5uY-47">
          <mxGeometry width="160" relative="1" as="geometry">
            <mxPoint x="940" y="-870" as="sourcePoint" />
            <mxPoint x="750" y="-980" as="targetPoint" />
          </mxGeometry>
        </mxCell>
      </root>
    </mxGraphModel>
  </diagram>
</mxfile>
